<?xml version="1.0" standalone="no"?>
<!DOCTYPE svg PUBLIC "-//W3C//DTD SVG 20010904//EN"
 "http://www.w3.org/TR/2001/REC-SVG-20010904/DTD/svg10.dtd">
<svg version="1.0" xmlns="http://www.w3.org/2000/svg"
 width="800.000000pt" height="800.000000pt" viewBox="0 0 800.000000 800.000000"
 preserveAspectRatio="xMidYMid meet">
<metadata>
Created by potrace 1.14, written by Peter Selinger 2001-2017
</metadata>
<g transform="translate(0.000000,800.000000) scale(0.100000,-0.100000)"
fill="#000000" stroke="none">
<path d="M4500 7310 l0 -60 -185 0 -184 0 -3 -62 -3 -63 -62 -3 -63 -3 0 -119
0 -120 60 0 60 0 0 60 0 60 65 0 65 0 0 65 0 65 185 0 185 0 0 60 0 60 65 0
65 0 0 60 0 60 -125 0 -125 0 0 -60z"/>
<path d="M4130 6810 l0 -60 -125 0 -124 0 -3 -62 -3 -63 -122 -3 -123 -3 0
-59 0 -60 -625 0 -625 0 0 125 0 125 -375 0 -375 0 0 -125 0 -125 -440 0 -440
0 0 -2500 0 -2500 3190 0 3190 0 0 2500 0 2500 -380 0 -380 0 0 125 0 125
-370 0 -370 0 0 -125 0 -125 -255 0 -256 0 3 -62 3 -63 63 -3 62 -3 0 -59 0
-60 60 0 59 0 3 -62 3 -63 63 -3 62 -3 0 -119 0 -120 60 0 60 0 0 -65 0 -65
65 0 65 0 0 -125 0 -125 60 0 60 0 0 -93 c0 -52 3 -135 6 -185 l7 -92 58 0 59
0 0 185 0 185 375 0 375 0 0 -184 0 -184 -375 -7 -375 -7 0 -434 0 -434 -65 0
-65 0 0 125 0 125 -60 0 -60 0 0 250 0 250 -65 0 -65 0 0 185 0 185 -60 0 -60
0 0 190 0 190 -60 0 -60 0 0 125 0 125 -65 0 -65 0 0 65 0 65 -60 0 -60 0 0
60 0 60 -65 0 -65 0 0 65 0 65 -60 0 -60 0 0 60 0 60 -65 0 -65 0 0 60 0 60
-187 2 -188 3 -3 63 -3 62 -59 0 -60 0 0 60 0 60 -60 0 -60 0 0 -60z m620
-375 l0 -65 60 0 60 0 0 -60 0 -60 65 0 65 0 0 -65 0 -65 59 0 58 0 7 -92 c3
-50 6 -133 6 -185 l0 -93 60 0 60 0 0 -65 0 -65 -125 0 -125 0 0 130 0 130
-65 0 -65 0 0 120 0 119 -122 3 -123 3 -3 63 -3 62 -59 0 -60 0 0 60 0 59 63
3 62 3 3 63 3 62 59 0 60 0 0 -65z m-2750 -435 l0 -130 -190 0 -190 0 0 123
c0 68 3 127 7 130 3 4 89 7 190 7 l183 0 0 -130z m4378 -2 l3 -128 -191 0
-190 0 0 130 0 130 188 -2 187 -3 3 -127z m-4378 -688 l0 -190 -97 0 c-54 0
-223 3 -375 7 l-278 6 0 184 0 183 375 0 375 0 0 -190z m3370 125 l0 -65 -60
0 -60 0 0 65 0 65 60 0 60 0 0 -65z m3 -366 c4 -100 4 -186 1 -190 -3 -5 -32
-9 -65 -9 l-59 0 0 190 0 190 58 0 59 0 6 -181z"/>
<path d="M4630 6310 l0 -60 60 0 60 0 0 60 0 60 -60 0 -60 0 0 -60z"/>
</g>
</svg>
